<?xml version="1.0" encoding="UTF-8" standalone="no"?>
<!DOCTYPE svg PUBLIC "-//W3C//DTD SVG 1.1//EN" "http://www.w3.org/Graphics/SVG/1.1/DTD/svg11.dtd">
<svg width="100%" height="100%" viewBox="0 0 21 18" version="1.1" xmlns="http://www.w3.org/2000/svg" xmlns:xlink="http://www.w3.org/1999/xlink" xml:space="preserve" xmlns:serif="http://www.serif.com/" style="fill-rule:evenodd;clip-rule:evenodd;stroke-linejoin:round;stroke-miterlimit:2;">
    <g transform="matrix(1,0,0,1,-672.154,-637.551)">
        <g transform="matrix(0.600055,0,4.16334e-17,0.545455,427.529,308.545)">
            <path d="M424.335,609.26C427.843,602 434.86,602 438.369,605.3C441.877,608.6 441.877,615.2 438.369,621.8C435.913,626.75 429.598,631.7 424.335,635C419.072,631.7 412.757,626.75 410.301,621.8C406.793,615.2 406.793,608.6 410.301,605.3C413.81,602 420.826,602 424.335,609.26Z" style="fill:rgb(44,173,242);fill-opacity:0.1;"/>
            <path d="M424.335,609.26C427.843,602 434.86,602 438.369,605.3C441.877,608.6 441.877,615.2 438.369,621.8C435.913,626.75 429.598,631.7 424.335,635C419.072,631.7 412.757,626.75 410.301,621.8C406.793,615.2 406.793,608.6 410.301,605.3C413.81,602 420.826,602 424.335,609.26ZM424.335,631.817C428.934,628.806 434.089,624.686 436.174,620.482L436.211,620.412C437.711,617.59 438.5,614.782 438.5,612.312C438.5,610.3 437.967,608.54 436.744,607.39C434.178,604.976 429.109,605.24 426.542,610.551C426.108,611.449 425.259,612.01 424.335,612.01C423.41,612.01 422.562,611.449 422.128,610.551C419.561,605.24 414.492,604.976 411.926,607.39C410.703,608.54 410.17,610.3 410.17,612.312C410.17,614.782 410.959,617.59 412.459,620.412L412.495,620.482C414.581,624.686 419.735,628.806 424.335,631.817Z" style="fill:rgb(44,173,242);"/>
        </g>
    </g>
</svg>
