<?xml version="1.0" encoding="UTF-8" standalone="no"?>
<!DOCTYPE svg PUBLIC "-//W3C//DTD SVG 1.1//EN" "http://www.w3.org/Graphics/SVG/1.1/DTD/svg11.dtd">
<svg width="100%" height="100%" viewBox="0 0 100 73" version="1.1" xmlns="http://www.w3.org/2000/svg" xmlns:xlink="http://www.w3.org/1999/xlink" xml:space="preserve" xmlns:serif="http://www.serif.com/" style="fill-rule:evenodd;clip-rule:evenodd;stroke-linejoin:round;stroke-miterlimit:2;">
    <g transform="matrix(1,0,0,1,-545.694,-403.347)">
        <g transform="matrix(1,0,0,1,247.5,51.3228)">
            <g transform="matrix(0.134672,0,0,0.134793,261.81,343.665)">
                <g transform="matrix(1.15922,0.289147,-0.241325,0.9675,-412.038,-381.269)">
                    <path d="M852.922,375.317C879.913,327.861 904.465,271.416 925.658,203.902C932.497,182.529 950.659,169.524 969.618,172.423C988.578,175.322 1003.42,193.372 1005.53,216.114C1011.12,274.634 1010.99,336.059 1001.56,402.116C1031.46,343.581 1060.45,275.911 1088.42,197.367C1096.49,174.67 1117.18,162.402 1137.15,168.471C1157.12,174.54 1170.4,197.134 1168.43,221.688C1163.76,279.335 1153.24,342.532 1136.65,411.059L1135.08,417.406C1153.41,383.438 1170.96,346.21 1186.97,304.433C1192.34,288.608 1205.98,279.145 1220.12,281.436C1234.26,283.727 1245.3,297.19 1246.95,314.153C1248.93,356.805 1245.9,399.478 1235.81,442.432C1232.97,454.518 1229.66,466.61 1225.83,478.71C1239.36,461.946 1252,442.483 1264.01,420.767C1266.57,415.378 1272.31,413.491 1276.81,416.555C1281.31,419.62 1282.88,426.484 1280.32,431.873C1266.57,465.942 1250.96,495.802 1232.96,520.319C1218.65,539.814 1202.6,555.308 1184.85,567.075C1177.52,571.196 1168.8,569.242 1163.2,562.223C1158.42,556.218 1156.83,547.653 1158.86,539.933C1123.87,600.521 1083.8,649.529 1042.43,692.96C1027.98,707.822 1006.86,708.704 991.587,695.082C976.318,681.46 970.987,656.977 978.755,636.153C985.486,617.932 991.909,599.994 998.012,582.349C965.252,630.657 931.72,671.074 897.632,705.434C881.931,721.241 858.996,721.168 843.376,705.262C827.756,689.356 824.017,662.267 834.532,641.178C868.625,572.848 891.551,510.172 905.951,451.729C890.037,476.25 873.395,498.296 855.861,517.736C831.813,544.397 806.432,566.386 780.134,584.818C766.339,595.485 748.201,593.186 736.586,579.299C724.97,565.412 723.026,543.7 731.916,527.17C754.707,489.874 772.82,454.613 786.072,420.621C787.781,416.238 789.417,411.889 790.966,407.571L786.974,412.069C767.982,433.054 749.102,449.045 729.779,459.619C725.232,462.588 719.528,460.579 717.051,455.136C714.573,449.694 716.253,442.865 720.8,439.896C736.836,427.598 751.86,410.497 766.508,389.013C784.251,362.991 800.633,330.521 816.461,291.811C821.225,281.979 830.894,277.179 840.067,280.091C849.24,283.004 855.648,292.908 855.709,304.271C857.091,326.892 856.127,350.527 852.922,375.317Z" style="fill:rgb(220,239,254);"/>
                </g>
                <g transform="matrix(1.20153,0,0,1.66978,-346.336,-418.036)">
                    <g transform="matrix(1.51769,0,0,1.09063,92.2827,95.2431)">
                        <path d="M356.281,407.1C326.605,426.414 357.876,295.105 377.458,381.758C375.325,385.078 373.311,388.049 371.417,390.683C374.174,392.216 377.226,394.052 380.59,396.218C389.206,438.487 368.307,424.356 356.281,407.1ZM377.458,381.758L377.521,381.661C377.693,381.394 378.138,381.514 378.447,381.442C381.567,380.715 384.657,380.007 387.731,379.372C400.679,376.698 413.193,374.682 425.343,373.153C445.204,370.655 464.124,369.595 482.586,369.787C517.953,370.157 551.637,375.309 587.241,385.231C589.62,385.85 591.178,388.13 590.892,390.572C590.607,393.015 588.565,394.873 586.108,394.927C547.253,395.012 512.867,397.149 482.013,401.864C457.396,405.626 435.052,411.008 414.506,418.334C413.77,418.613 412.946,418.242 412.667,417.506C412.387,416.77 412.758,415.946 413.494,415.666C433.954,407.41 456.309,401.025 481.035,396.223C501.475,392.253 523.517,389.377 547.425,387.412C532.64,385.187 517.998,383.835 503.207,383.338C481.66,382.614 459.82,383.824 436.733,386.726C422.612,388.501 408.049,391.002 392.77,393.966C389.159,394.667 385.5,395.348 381.801,396.078C381.436,396.15 381.017,396.493 380.703,396.291L380.59,396.218L380.269,394.671C380.164,394.195 379.43,390.822 379.301,390.394C379.234,390.171 378.825,390.435 378.601,390.37C378.103,390.224 377.716,389.809 377.606,389.302C377.497,388.795 377.678,388.256 378.071,387.918C378.248,387.765 378.733,387.837 378.699,387.606C378.607,386.989 377.76,383.113 377.619,382.458L377.458,381.758Z" style="fill:rgb(30,136,229);"/>
                    </g>
                    <g transform="matrix(1.70749,0,0,1.24276,-17.9647,16.3208)">
                        <g transform="matrix(130.919,-22.1742,22.4284,129.435,367.566,377.29)">
                            <path d="M0.075,-0.062C0.074,-0.086 0.073,-0.111 0.073,-0.137C0.072,-0.163 0.072,-0.191 0.071,-0.221C0.07,-0.251 0.07,-0.283 0.07,-0.319L0.07,-0.436C0.07,-0.483 0.07,-0.524 0.071,-0.558C0.072,-0.591 0.074,-0.619 0.077,-0.64C0.08,-0.661 0.086,-0.677 0.093,-0.687C0.1,-0.697 0.109,-0.702 0.121,-0.702C0.127,-0.702 0.133,-0.701 0.138,-0.7C0.143,-0.699 0.148,-0.696 0.152,-0.692C0.156,-0.687 0.16,-0.681 0.163,-0.673C0.166,-0.664 0.167,-0.653 0.168,-0.64C0.169,-0.616 0.17,-0.595 0.171,-0.576C0.172,-0.557 0.172,-0.539 0.173,-0.521C0.174,-0.502 0.174,-0.483 0.174,-0.464L0.174,-0.311C0.174,-0.284 0.174,-0.257 0.173,-0.23C0.172,-0.203 0.172,-0.176 0.171,-0.149C0.17,-0.122 0.169,-0.093 0.168,-0.063C0.167,-0.047 0.166,-0.035 0.163,-0.026C0.16,-0.017 0.157,-0.011 0.153,-0.006C0.149,-0.001 0.144,0.001 0.139,0.002C0.134,0.003 0.128,0.004 0.121,0.004C0.109,0.004 0.099,0 0.09,-0.009C0.081,-0.017 0.076,-0.035 0.075,-0.062Z" style="fill:rgb(30,136,229);fill-rule:nonzero;"/>
                        </g>
                        <g transform="matrix(132.358,-11.0178,11.1441,130.858,395.642,371.575)">
                            <path d="M0.296,-0.426C0.271,-0.426 0.249,-0.422 0.23,-0.414C0.21,-0.406 0.188,-0.394 0.163,-0.378L0.163,-0.317C0.163,-0.29 0.163,-0.26 0.162,-0.229C0.161,-0.197 0.161,-0.166 0.16,-0.135C0.159,-0.104 0.158,-0.079 0.156,-0.058C0.155,-0.045 0.153,-0.034 0.152,-0.027C0.15,-0.019 0.148,-0.013 0.145,-0.009C0.141,-0.005 0.138,-0.003 0.133,-0.002C0.128,-0.001 0.121,0 0.113,0C0.105,0 0.099,-0.001 0.094,-0.002C0.089,-0.003 0.084,-0.005 0.081,-0.009C0.078,-0.012 0.075,-0.018 0.073,-0.025C0.071,-0.032 0.069,-0.042 0.068,-0.055C0.067,-0.067 0.066,-0.083 0.065,-0.103C0.064,-0.123 0.063,-0.145 0.062,-0.169C0.061,-0.192 0.061,-0.216 0.061,-0.241C0.06,-0.265 0.06,-0.287 0.06,-0.308C0.06,-0.342 0.061,-0.37 0.062,-0.391C0.063,-0.412 0.064,-0.431 0.067,-0.448C0.071,-0.476 0.076,-0.494 0.083,-0.501C0.09,-0.508 0.099,-0.512 0.11,-0.512C0.127,-0.512 0.139,-0.507 0.148,-0.498C0.156,-0.489 0.161,-0.473 0.163,-0.452C0.188,-0.473 0.214,-0.49 0.243,-0.503C0.271,-0.516 0.3,-0.522 0.33,-0.522C0.359,-0.522 0.385,-0.515 0.408,-0.502C0.432,-0.489 0.452,-0.467 0.467,-0.437C0.476,-0.419 0.483,-0.399 0.488,-0.378C0.493,-0.356 0.496,-0.333 0.498,-0.309C0.499,-0.298 0.499,-0.288 0.5,-0.278C0.501,-0.267 0.501,-0.256 0.501,-0.245C0.502,-0.233 0.502,-0.22 0.502,-0.205L0.502,-0.153C0.502,-0.132 0.502,-0.112 0.501,-0.093C0.5,-0.074 0.499,-0.058 0.496,-0.045C0.493,-0.031 0.487,-0.02 0.48,-0.013C0.473,-0.005 0.463,-0.001 0.45,-0.001C0.419,-0.001 0.403,-0.016 0.402,-0.045L0.402,-0.07C0.402,-0.086 0.402,-0.103 0.402,-0.123C0.401,-0.143 0.401,-0.163 0.401,-0.184C0.4,-0.205 0.4,-0.222 0.399,-0.235C0.398,-0.246 0.398,-0.257 0.397,-0.27C0.396,-0.282 0.394,-0.294 0.393,-0.307C0.391,-0.32 0.389,-0.332 0.386,-0.344C0.383,-0.355 0.38,-0.366 0.376,-0.375C0.367,-0.397 0.355,-0.411 0.341,-0.417C0.327,-0.423 0.312,-0.426 0.296,-0.426Z" style="fill:rgb(30,136,229);fill-rule:nonzero;"/>
                        </g>
                        <g transform="matrix(132.818,1.44757,-1.46417,131.313,465.366,365.642)">
                            <path d="M0.065,-0.053C0.064,-0.068 0.063,-0.09 0.062,-0.119C0.061,-0.149 0.061,-0.184 0.06,-0.223C0.059,-0.262 0.059,-0.304 0.059,-0.35L0.059,-0.491C0.059,-0.548 0.059,-0.594 0.06,-0.63C0.061,-0.666 0.063,-0.694 0.066,-0.715C0.069,-0.736 0.075,-0.75 0.082,-0.757C0.089,-0.765 0.1,-0.769 0.114,-0.769C0.126,-0.769 0.135,-0.765 0.14,-0.757C0.145,-0.75 0.149,-0.733 0.152,-0.707C0.153,-0.691 0.155,-0.67 0.156,-0.643C0.157,-0.616 0.157,-0.586 0.158,-0.554C0.158,-0.522 0.158,-0.489 0.159,-0.454C0.159,-0.419 0.159,-0.386 0.159,-0.355L0.159,-0.274L0.381,-0.475C0.388,-0.482 0.397,-0.488 0.407,-0.495C0.418,-0.501 0.429,-0.504 0.44,-0.504C0.453,-0.504 0.463,-0.499 0.47,-0.489C0.477,-0.478 0.48,-0.466 0.48,-0.453C0.48,-0.446 0.479,-0.439 0.476,-0.433C0.474,-0.426 0.469,-0.42 0.462,-0.415L0.327,-0.304L0.491,-0.066C0.497,-0.058 0.5,-0.049 0.5,-0.039C0.5,-0.024 0.495,-0.013 0.486,-0.006C0.477,0.001 0.465,0.005 0.45,0.005C0.439,0.005 0.43,0.003 0.422,-0.001C0.414,-0.005 0.406,-0.013 0.399,-0.024L0.249,-0.241L0.158,-0.166C0.157,-0.141 0.157,-0.119 0.156,-0.1C0.155,-0.081 0.154,-0.065 0.153,-0.054C0.15,-0.031 0.146,-0.015 0.14,-0.008C0.134,-0.001 0.123,0.003 0.108,0.003C0.093,0.003 0.082,-0.001 0.077,-0.008C0.071,-0.015 0.067,-0.03 0.065,-0.053Z" style="fill:rgb(30,136,229);fill-rule:nonzero;"/>
                        </g>
                        <g transform="matrix(132.491,9.31913,-9.42597,130.99,531.551,366.761)">
                            <path d="M0.067,-0.058C0.066,-0.082 0.066,-0.11 0.065,-0.142C0.064,-0.174 0.064,-0.209 0.064,-0.246C0.063,-0.283 0.063,-0.323 0.063,-0.364C0.062,-0.405 0.062,-0.448 0.062,-0.491C0.062,-0.538 0.062,-0.579 0.063,-0.613C0.064,-0.647 0.066,-0.675 0.069,-0.697C0.071,-0.719 0.076,-0.735 0.083,-0.746C0.09,-0.756 0.099,-0.761 0.111,-0.761C0.122,-0.761 0.132,-0.757 0.141,-0.75C0.15,-0.743 0.155,-0.726 0.156,-0.699C0.159,-0.651 0.16,-0.601 0.161,-0.55C0.162,-0.498 0.162,-0.447 0.162,-0.397L0.162,-0.311C0.162,-0.283 0.162,-0.256 0.161,-0.229C0.16,-0.202 0.16,-0.174 0.159,-0.146C0.158,-0.118 0.157,-0.089 0.156,-0.059C0.155,-0.043 0.154,-0.031 0.152,-0.022C0.149,-0.013 0.146,-0.007 0.142,-0.002C0.138,0.003 0.134,0.005 0.129,0.006C0.124,0.007 0.118,0.008 0.111,0.008C0.099,0.008 0.089,0.004 0.081,-0.005C0.073,-0.013 0.068,-0.031 0.067,-0.058Z" style="fill:rgb(30,136,229);fill-rule:nonzero;"/>
                        </g>
                        <g transform="matrix(132.013,14.5136,-14.6799,130.516,557.25,368.476)">
                            <path d="M0.068,-0.062C0.067,-0.087 0.066,-0.115 0.065,-0.147C0.064,-0.178 0.063,-0.213 0.063,-0.251C0.063,-0.298 0.063,-0.339 0.064,-0.373C0.065,-0.406 0.067,-0.434 0.07,-0.456C0.073,-0.477 0.077,-0.493 0.084,-0.503C0.091,-0.514 0.1,-0.519 0.112,-0.519C0.123,-0.519 0.133,-0.515 0.142,-0.507C0.151,-0.499 0.156,-0.482 0.157,-0.455C0.161,-0.385 0.163,-0.317 0.163,-0.252C0.163,-0.219 0.162,-0.188 0.161,-0.159C0.16,-0.13 0.158,-0.098 0.157,-0.063C0.156,-0.047 0.155,-0.035 0.153,-0.026C0.15,-0.017 0.147,-0.011 0.143,-0.006C0.139,-0.001 0.135,0.001 0.13,0.002C0.125,0.003 0.119,0.004 0.112,0.004C0.1,0.004 0.09,0 0.082,-0.009C0.074,-0.017 0.069,-0.035 0.068,-0.062ZM0.113,-0.7C0.128,-0.7 0.142,-0.694 0.156,-0.682C0.169,-0.67 0.175,-0.656 0.175,-0.639C0.175,-0.623 0.168,-0.609 0.155,-0.598C0.142,-0.586 0.127,-0.58 0.11,-0.58C0.096,-0.58 0.083,-0.586 0.07,-0.598C0.058,-0.609 0.052,-0.624 0.052,-0.641C0.052,-0.657 0.058,-0.671 0.07,-0.683C0.083,-0.694 0.097,-0.7 0.113,-0.7Z" style="fill:rgb(30,136,229);fill-rule:nonzero;"/>
                        </g>
                        <g transform="matrix(131.204,20.4593,-20.6938,129.717,582.994,371.193)">
                            <path d="M0.068,-0.062C0.067,-0.087 0.066,-0.115 0.065,-0.147C0.064,-0.178 0.063,-0.213 0.063,-0.251C0.063,-0.298 0.063,-0.339 0.064,-0.373C0.065,-0.406 0.067,-0.434 0.07,-0.456C0.073,-0.477 0.077,-0.493 0.084,-0.503C0.091,-0.514 0.1,-0.519 0.112,-0.519C0.123,-0.519 0.133,-0.515 0.142,-0.507C0.151,-0.499 0.156,-0.482 0.157,-0.455C0.161,-0.385 0.163,-0.317 0.163,-0.252C0.163,-0.219 0.162,-0.188 0.161,-0.159C0.16,-0.13 0.158,-0.098 0.157,-0.063C0.156,-0.047 0.155,-0.035 0.153,-0.026C0.15,-0.017 0.147,-0.011 0.143,-0.006C0.139,-0.001 0.135,0.001 0.13,0.002C0.125,0.003 0.119,0.004 0.112,0.004C0.1,0.004 0.09,0 0.082,-0.009C0.074,-0.017 0.069,-0.035 0.068,-0.062ZM0.113,-0.7C0.128,-0.7 0.142,-0.694 0.156,-0.682C0.169,-0.67 0.175,-0.656 0.175,-0.639C0.175,-0.623 0.168,-0.609 0.155,-0.598C0.142,-0.586 0.127,-0.58 0.11,-0.58C0.096,-0.58 0.083,-0.586 0.07,-0.598C0.058,-0.609 0.052,-0.624 0.052,-0.641C0.052,-0.657 0.058,-0.671 0.07,-0.683C0.083,-0.694 0.097,-0.7 0.113,-0.7Z" style="fill:rgb(30,136,229);fill-rule:nonzero;"/>
                        </g>
                    </g>
                </g>
            </g>
        </g>
    </g>
</svg>
